<svg width="30" height="30" viewBox="0 0 30 30" fill="none" xmlns="http://www.w3.org/2000/svg">
<path d="M14.8998 0C6.67709 0 0 6.67709 0 14.8998C0 23.1225 6.67709 29.7996 14.8998 29.7996C23.1225 29.7996 29.7996 23.1225 29.7996 14.8998C29.7996 6.67709 23.1225 0 14.8998 0ZM14.8998 27.0175C8.22271 27.0175 2.78212 21.5769 2.78212 14.8998C2.78212 8.22271 8.22271 2.78212 14.8998 2.78212C21.5769 2.78212 27.0175 8.22271 27.0175 14.8998C27.0175 21.5769 21.5769 27.0175 14.8998 27.0175ZM16.3218 13.6633V22.8752C16.3218 23.6171 15.7035 24.2972 14.8998 24.2972C14.1579 24.2972 13.4778 23.6789 13.4778 22.8752V13.6633C13.4778 12.9214 14.0961 12.2413 14.8998 12.2413C15.6417 12.3032 16.3218 12.9214 16.3218 13.6633ZM16.6927 8.09906C16.6927 9.08826 15.889 9.89199 14.8998 9.89199C13.9106 9.89199 13.1069 9.08826 13.1069 8.09906C13.1069 7.10987 13.9106 6.30614 14.8998 6.30614C15.889 6.30614 16.6927 7.10987 16.6927 8.09906Z" fill="#2479A8"/>
</svg>
