<svg width="30" height="30" viewBox="0 0 30 30" fill="none" xmlns="http://www.w3.org/2000/svg">
<path d="M14.8998 0C6.67709 0 0 6.67709 0 14.8998C0 23.1225 6.67709 29.7996 14.8998 29.7996C23.1225 29.7996 29.7996 23.1225 29.7996 14.8998C29.7996 6.67709 23.1225 0 14.8998 0ZM14.8998 27.0175C8.22271 27.0175 2.78212 21.5769 2.78212 14.8998C2.78212 8.22271 8.22271 2.78212 14.8998 2.78212C21.5769 2.78212 27.0175 8.22271 27.0175 14.8998C27.0175 21.5769 21.5769 27.0175 14.8998 27.0175Z" fill="#2479A8"/>
<path d="M21.5489 19.5419L17.3373 15.3386C17.2913 15.295 17.2546 15.2424 17.2296 15.1842C17.2045 15.126 17.1916 15.0633 17.1916 15C17.1916 14.9367 17.2045 14.874 17.2296 14.8158C17.2546 14.7576 17.2913 14.705 17.3373 14.6614L21.5489 10.4581C21.6891 10.324 21.8012 10.1634 21.8786 9.98556C21.956 9.80777 21.9973 9.61638 21.9999 9.42254C22.0025 9.2287 21.9664 9.03628 21.8938 8.85647C21.8212 8.67666 21.7135 8.51307 21.5769 8.3752C21.4394 8.24748 21.2775 8.14863 21.1009 8.08449C20.9244 8.02036 20.7367 7.99225 20.5491 8.00183C20.3614 8.01141 20.1776 8.05849 20.0085 8.14027C19.8395 8.22206 19.6885 8.33688 19.5647 8.47795L15.3531 12.6812C15.3094 12.7271 15.2568 12.7637 15.1985 12.7887C15.1402 12.8137 15.0774 12.8266 15.0139 12.8266C14.9504 12.8266 14.8876 12.8137 14.8293 12.7887C14.771 12.7637 14.7183 12.7271 14.6746 12.6812L10.463 8.47795C10.3286 8.338 10.1676 8.22613 9.9895 8.14886C9.81135 8.07159 9.61959 8.03045 9.42536 8.02784C9.23114 8.02523 9.03833 8.06121 8.85817 8.13367C8.678 8.20613 8.51408 8.31364 8.37594 8.44992C8.24797 8.58723 8.14892 8.74877 8.08466 8.92499C8.0204 9.1012 7.99223 9.28849 8.00183 9.47577C8.01143 9.66304 8.05861 9.84649 8.14055 10.0152C8.2225 10.184 8.33755 10.3346 8.47889 10.4581L12.6905 14.6614C12.7365 14.705 12.7731 14.7576 12.7982 14.8158C12.8232 14.874 12.8361 14.9367 12.8361 15C12.8361 15.0633 12.8232 15.126 12.7982 15.1842C12.7731 15.2424 12.7365 15.295 12.6905 15.3386L8.47889 19.5419C8.33867 19.676 8.22658 19.8367 8.14916 20.0144C8.07173 20.1922 8.03051 20.3836 8.0279 20.5775C8.02528 20.7713 8.06133 20.9637 8.13394 21.1435C8.20654 21.3233 8.31426 21.4869 8.45082 21.6248C8.58839 21.7525 8.75026 21.8514 8.92682 21.9155C9.10338 21.9796 9.29105 22.0078 9.47869 21.9982C9.66634 21.9886 9.85015 21.9415 10.0192 21.8597C10.1883 21.7779 10.3392 21.6631 10.463 21.5221L14.6746 17.3188C14.7183 17.2729 14.771 17.2363 14.8293 17.2113C14.8876 17.1863 14.9504 17.1734 15.0139 17.1734C15.0774 17.1734 15.1402 17.1863 15.1985 17.2113C15.2568 17.2363 15.3094 17.2729 15.3531 17.3188L19.5647 21.5221C19.6885 21.6631 19.8395 21.7779 20.0085 21.8597C20.1776 21.9415 20.3614 21.9886 20.5491 21.9982C20.7367 22.0078 20.9244 21.9796 21.1009 21.9155C21.2775 21.8514 21.4394 21.7525 21.5769 21.6248C21.7135 21.4869 21.8212 21.3233 21.8938 21.1435C21.9664 20.9637 22.0025 20.7713 21.9999 20.5775C21.9973 20.3836 21.956 20.1922 21.8786 20.0144C21.8012 19.8367 21.6891 19.676 21.5489 19.5419Z" fill="#2479A8"/>
</svg>
