<svg width="28" height="28" viewBox="0 0 28 28" fill="none" xmlns="http://www.w3.org/2000/svg">
<path d="M14 0C11.2311 0 8.52431 0.821085 6.22202 2.35942C3.91973 3.89776 2.12532 6.08426 1.06569 8.64243C0.00606596 11.2006 -0.271181 14.0155 0.269012 16.7313C0.809205 19.447 2.14258 21.9416 4.10051 23.8995C6.05845 25.8574 8.55301 27.1908 11.2687 27.731C13.9845 28.2712 16.7994 27.9939 19.3576 26.9343C21.9157 25.8747 24.1022 24.0803 25.6406 21.778C27.1789 19.4757 28 16.7689 28 14C28 12.1615 27.6379 10.341 26.9343 8.64243C26.2307 6.94387 25.1995 5.40052 23.8995 4.1005C22.5995 2.80048 21.0561 1.76925 19.3576 1.06569C17.659 0.362121 15.8385 0 14 0Z" fill="#2479A8"/>
<path d="M20.5489 18.5419L16.3373 14.3386C16.2913 14.295 16.2546 14.2424 16.2296 14.1842C16.2045 14.126 16.1916 14.0633 16.1916 14C16.1916 13.9367 16.2045 13.874 16.2296 13.8158C16.2546 13.7576 16.2913 13.705 16.3373 13.6614L20.5489 9.45815C20.6891 9.324 20.8012 9.16335 20.8786 8.98556C20.956 8.80777 20.9973 8.61638 20.9999 8.42254C21.0025 8.2287 20.9664 8.03628 20.8938 7.85647C20.8212 7.67666 20.7135 7.51307 20.5769 7.3752C20.4394 7.24748 20.2775 7.14863 20.1009 7.08449C19.9244 7.02036 19.7367 6.99225 19.5491 7.00183C19.3614 7.01141 19.1776 7.05849 19.0085 7.14027C18.8395 7.22206 18.6885 7.33688 18.5647 7.47795L14.3531 11.6812C14.3094 11.7271 14.2568 11.7637 14.1985 11.7887C14.1402 11.8137 14.0774 11.8266 14.0139 11.8266C13.9504 11.8266 13.8876 11.8137 13.8293 11.7887C13.771 11.7637 13.7183 11.7271 13.6746 11.6812L9.46302 7.47795C9.32861 7.338 9.16764 7.22613 8.9895 7.14886C8.81135 7.07159 8.61959 7.03045 8.42536 7.02784C8.23114 7.02523 8.03833 7.06121 7.85817 7.13367C7.678 7.20613 7.51408 7.31364 7.37594 7.44992C7.24797 7.58723 7.14892 7.74877 7.08466 7.92499C7.0204 8.1012 6.99223 8.28849 7.00183 8.47577C7.01143 8.66304 7.05861 8.84649 7.14055 9.01524C7.2225 9.18398 7.33755 9.33459 7.47889 9.45815L11.6905 13.6614C11.7365 13.705 11.7731 13.7576 11.7982 13.8158C11.8232 13.874 11.8361 13.9367 11.8361 14C11.8361 14.0633 11.8232 14.126 11.7982 14.1842C11.7731 14.2424 11.7365 14.295 11.6905 14.3386L7.47889 18.5419C7.33867 18.676 7.22658 18.8367 7.14916 19.0144C7.07173 19.1922 7.03051 19.3836 7.0279 19.5775C7.02528 19.7713 7.06133 19.9637 7.13394 20.1435C7.20654 20.3233 7.31426 20.4869 7.45082 20.6248C7.58839 20.7525 7.75026 20.8514 7.92682 20.9155C8.10338 20.9796 8.29105 21.0078 8.47869 20.9982C8.66634 20.9886 8.85015 20.9415 9.01923 20.8597C9.18831 20.7779 9.33922 20.6631 9.46302 20.5221L13.6746 16.3188C13.7183 16.2729 13.771 16.2363 13.8293 16.2113C13.8876 16.1863 13.9504 16.1734 14.0139 16.1734C14.0774 16.1734 14.1402 16.1863 14.1985 16.2113C14.2568 16.2363 14.3094 16.2729 14.3531 16.3188L18.5647 20.5221C18.6885 20.6631 18.8395 20.7779 19.0085 20.8597C19.1776 20.9415 19.3614 20.9886 19.5491 20.9982C19.7367 21.0078 19.9244 20.9796 20.1009 20.9155C20.2775 20.8514 20.4394 20.7525 20.5769 20.6248C20.7135 20.4869 20.8212 20.3233 20.8938 20.1435C20.9664 19.9637 21.0025 19.7713 20.9999 19.5775C20.9973 19.3836 20.956 19.1922 20.8786 19.0144C20.8012 18.8367 20.6891 18.676 20.5489 18.5419Z" fill="white"/>
</svg>
