<svg width="132" height="130" viewBox="0 0 132 130" fill="none" xmlns="http://www.w3.org/2000/svg">
<path d="M104.506 0H27.3277C12.4433 0 0.453125 11.9023 0.453125 26.6776V103.29C0.453125 117.929 12.4433 129.968 27.3277 129.968H104.506C119.252 129.968 131.38 118.065 131.38 103.29V26.6776C131.38 11.9023 119.39 0 104.506 0ZM121.182 103.29C121.182 112.456 113.74 119.844 104.506 119.844H27.3277C18.0939 119.844 10.6517 112.456 10.6517 103.29V26.6776C10.6517 17.5114 18.0939 10.1238 27.3277 10.1238H104.506C113.74 10.1238 121.182 17.5114 121.182 26.6776V103.29Z" fill="#ABAEB2" fill-opacity="0.5"/>
<path d="M43.3147 57.5962C48.3383 57.5962 52.4107 53.5536 52.4107 48.5669C52.4107 43.5801 48.3383 39.5375 43.3147 39.5375C38.2911 39.5375 34.2188 43.5801 34.2188 48.5669C34.2188 53.5536 38.2911 57.5962 43.3147 57.5962Z" fill="#ABAEB2" fill-opacity="0.5"/>
<path d="M88.5179 57.5962C93.5414 57.5962 97.6139 53.5536 97.6139 48.5669C97.6139 43.5801 93.5414 39.5375 88.5179 39.5375C83.4943 39.5375 79.4219 43.5801 79.4219 48.5669C79.4219 53.5536 83.4943 57.5962 88.5179 57.5962Z" fill="#ABAEB2" fill-opacity="0.5"/>
<path d="M83.6935 80.5806H48.1364C45.38 80.5806 43.0371 82.7695 43.0371 85.6425C43.0371 88.5155 45.2422 90.7044 48.1364 90.7044H83.6935C86.4498 90.7044 88.7927 88.5155 88.7927 85.6425C88.7927 82.7695 86.4498 80.5806 83.6935 80.5806Z" fill="#ABAEB2" fill-opacity="0.5"/>
</svg>
