<svg width="16" height="26" viewBox="0 0 16 26" fill="none" xmlns="http://www.w3.org/2000/svg">
<path d="M7.963 20.001C8.216 19.974 8.492 19.986 8.769 19.95C11.524 19.59 13.872 17.117 13.979 14.233C13.982 14.158 13.983 14.083 13.984 14.008V11C13.99 10.807 14.005 10.775 14.033 10.691C14.149 10.333 14.482 10.055 14.858 10.008C14.979 9.993 15.008 10.001 15.046 10.002C15.239 10.02 15.27 10.038 15.352 10.07C15.683 10.201 15.931 10.518 15.976 10.875C15.983 10.93 15.982 10.944 15.984 11V14.012C15.976 16.596 14.637 19.145 12.508 20.603C11.463 21.318 10.243 21.773 8.992 21.934V24H11.992C12.011 24.001 12.029 24.001 12.048 24.002C12.277 24.021 12.35 24.055 12.476 24.125C13.058 24.447 13.153 25.402 12.571 25.816C12.403 25.935 12.197 25.994 11.992 26H3.992C3.762 25.994 3.687 25.963 3.558 25.901C2.944 25.605 2.815 24.609 3.413 24.184C3.581 24.065 3.787 24.006 3.992 24H6.992V21C6.995 20.837 7.01 20.784 7.042 20.687C7.08 20.573 7.138 20.469 7.213 20.377C7.267 20.307 7.33 20.244 7.403 20.191C7.485 20.131 7.574 20.089 7.667 20.06C7.761 20.026 7.86 20.006 7.963 20.001ZM1.089 10.004C1.27 10.025 1.299 10.042 1.376 10.073C1.705 10.207 1.951 10.527 1.993 10.882C2 10.934 1.999 10.947 2 11C2 12.016 1.997 13.031 2 14.047C2.019 16.065 3.101 18.024 4.838 19.104C4.838 19.104 5.421 19.594 5.284 20.181C5.137 20.807 4.327 21.145 3.735 20.773C1.483 19.356 0.009 16.749 0 14.012V11C0.006 10.806 0.0249997 10.754 0.0629997 10.652C0.193 10.301 0.535 10.038 0.912 10.004C1.026 9.994 1.053 10.002 1.089 10.004ZM8.019 0C10.092 0.019 11.972 1.817 11.992 3.973C12.002 7.324 12.002 10.676 11.992 14.027C11.976 15.772 10.702 17.421 9.016 17.867C7.712 18.212 6.239 17.843 5.252 16.915C4.466 16.177 4.002 15.118 3.992 14.027C3.982 10.676 3.982 7.324 3.992 3.973C4.011 1.945 5.729 0.0479999 7.916 0.000999928C7.95 -7.25267e-08 7.984 0 8.019 0ZM7.992 2C6.954 2.003 6.002 2.891 5.992 3.986C5.982 7.333 5.961 10.68 5.992 14.027C6.007 14.975 6.766 15.851 7.719 15.982C8.83 16.133 9.981 15.218 9.992 14.014C10.002 10.667 10.023 7.32 9.992 3.973C9.976 2.958 9.119 2.031 8.044 2.001C8.026 2 8.009 2 7.992 2Z" fill="white"/>
</svg>
