<svg width="29" height="33" viewBox="0 0 29 33" fill="none" xmlns="http://www.w3.org/2000/svg">
<path d="M28.3314 4.99102C28.3314 3.97294 27.9269 2.99656 27.2071 2.27667C26.4872 1.55677 25.5108 1.15234 24.4927 1.15234H4.83868C3.8206 1.15234 2.84421 1.55677 2.12432 2.27667C1.40443 2.99656 1 3.97294 1 4.99102V28.7908C1 29.8089 1.40443 30.7853 2.12432 31.5052C2.84421 32.2251 3.8206 32.6295 4.83868 32.6295H24.4927C25.5108 32.6295 26.4872 32.2251 27.2071 31.5052C27.9269 30.7853 28.3314 29.8089 28.3314 28.7908V4.99102ZM2.53547 28.7908V4.99102C2.53851 4.37931 2.78357 3.79368 3.21709 3.36211C3.6506 2.93054 4.23733 2.68811 4.84904 2.68781H6.52769V31.094H4.84904C4.23733 31.0937 3.6506 30.8513 3.21709 30.4197C2.78357 29.9881 2.53851 29.4025 2.53547 28.7908ZM26.7959 28.7908C26.7929 29.4025 26.5478 29.9881 26.1143 30.4197C25.6808 30.8513 25.094 31.0937 24.4823 31.094H8.06316V2.68781H24.4823C25.094 2.68811 25.6808 2.93054 26.1143 3.36211C26.5478 3.79368 26.7929 4.37931 26.7959 4.99102V28.7908Z" fill="#ABAEB2" stroke="#ABAEB2" stroke-width="0.5"/>
<path d="M24.1088 9.98394C24.1088 9.41296 23.882 8.86536 23.4782 8.46162C23.0745 8.05788 22.5269 7.83105 21.9559 7.83105H12.4424C11.8715 7.83105 11.3239 8.05788 10.9201 8.46162C10.5164 8.86536 10.2896 9.41296 10.2896 9.98394V15.8891C10.2896 16.46 10.5164 17.0076 10.9201 17.4114C11.3239 17.8151 11.8715 18.0419 12.4424 18.0419H21.9559C22.5269 18.0419 23.0745 17.8151 23.4782 17.4114C23.882 17.0076 24.1088 16.46 24.1088 15.8891V9.98394ZM22.5733 15.8891C22.5733 16.0528 22.5082 16.2098 22.3924 16.3256C22.2767 16.4414 22.1196 16.5064 21.9559 16.5065H12.4424C12.2787 16.5064 12.1217 16.4414 12.0059 16.3256C11.8901 16.2098 11.8251 16.0528 11.825 15.8891V9.98394C11.8251 9.8202 11.8901 9.66319 12.0059 9.54741C12.1217 9.43163 12.2787 9.36657 12.4424 9.36653H21.9559C22.1196 9.36657 22.2767 9.43163 22.3924 9.54741C22.5082 9.66319 22.5733 9.8202 22.5733 9.98394V15.8891Z" fill="#ABAEB2" stroke="#ABAEB2" stroke-width="0.5"/>
<path d="M23.2924 21.2676H11.0382C10.8346 21.2676 10.6393 21.3485 10.4954 21.4924C10.3514 21.6364 10.2705 21.8317 10.2705 22.0353C10.2705 22.2389 10.3514 22.4342 10.4954 22.5782C10.6393 22.7222 10.8346 22.803 11.0382 22.803H23.2924C23.496 22.803 23.6913 22.7222 23.8352 22.5782C23.9792 22.4342 24.0601 22.2389 24.0601 22.0353C24.0601 21.8317 23.9792 21.6364 23.8352 21.4924C23.6913 21.3485 23.496 21.2676 23.2924 21.2676Z" fill="#ABAEB2" stroke="#ABAEB2" stroke-width="0.5"/>
</svg>
