<svg width="36" height="36" viewBox="0 0 36 36" fill="none" xmlns="http://www.w3.org/2000/svg">
<path d="M28.2464 1H8.03714C4.13965 1 1 4.11664 1 7.98556V28.0467C1 31.8798 4.13965 35.0322 8.03714 35.0322H28.2464C32.1078 35.0322 35.2835 31.9156 35.2835 28.0467V7.98556C35.2835 4.11664 32.1438 1 28.2464 1ZM32.613 28.0467C32.613 30.4468 30.6642 32.3813 28.2464 32.3813H8.03714C5.61925 32.3813 3.67051 30.4468 3.67051 28.0467V7.98556C3.67051 5.58539 5.61925 3.65093 8.03714 3.65093H28.2464C30.6642 3.65093 32.613 5.58539 32.613 7.98556V28.0467Z" fill="#ABAEB2" stroke="white" stroke-width="0.5"/>
<path d="M24.6016 21.2044C23.952 20.882 23.1581 21.1686 22.8333 21.8134C21.9672 23.6046 20.1628 24.7151 18.1419 24.7151C16.157 24.7151 14.3165 23.5687 13.4504 21.8134C13.1256 21.1686 12.3317 20.882 11.6821 21.2044C11.0326 21.5268 10.7439 22.3149 11.0686 22.9597C12.3678 25.6107 15.1466 27.3302 18.1419 27.3302C21.1371 27.3302 23.9159 25.6107 25.2151 22.9597C25.5399 22.3149 25.2512 21.5268 24.6016 21.2044Z" fill="#ABAEB2" stroke="white" stroke-width="0.5"/>
<path d="M12.5483 13.7889C13.3423 13.7889 14.064 14.3263 14.2805 15.0786C14.461 15.6518 14.9662 16.0458 15.5436 16.0458C15.6519 16.0458 15.7962 16.0458 15.9045 16.01C16.6263 15.8309 17.0232 15.0786 16.8067 14.3979C16.2654 12.4993 14.4971 11.1738 12.5122 11.1738C10.5274 11.1738 8.7591 12.4993 8.21778 14.3979C8.03734 15.1144 8.43431 15.8309 9.11998 16.01C9.80564 16.2249 10.5635 15.795 10.7439 15.0786C11.0326 14.3263 11.7544 13.7889 12.5483 13.7889Z" fill="#ABAEB2" stroke="white" stroke-width="0.5"/>
<path d="M23.7352 11.1738C21.7504 11.1738 19.9821 12.4993 19.4408 14.3979C19.2603 15.1144 19.6573 15.8309 20.3791 16.01C21.1008 16.2249 21.8226 15.795 22.003 15.0786C22.2195 14.3263 22.9413 13.7889 23.7352 13.7889C24.5292 13.7889 25.2509 14.3263 25.4674 15.0786C25.6479 15.6518 26.1531 16.0458 26.7305 16.0458C26.8388 16.0458 26.9831 16.0458 27.0914 16.01C27.8132 15.8309 28.2101 15.0786 28.0297 14.3979C27.4884 12.4993 25.7201 11.1738 23.7352 11.1738Z" fill="#ABAEB2" stroke="white" stroke-width="0.5"/>
</svg>
