<svg width="35" height="35" viewBox="0 0 35 35" fill="none" xmlns="http://www.w3.org/2000/svg">
<path fill-rule="evenodd" clip-rule="evenodd" d="M28.5951 27.5998C26.8715 24.8562 24.2341 22.8558 21.2095 21.8941C22.7895 20.668 23.8241 18.7738 23.8241 16.6255C23.8241 12.9369 20.8244 9.93523 17.1338 9.93523C13.4451 9.93523 10.4434 12.9369 10.4434 16.6255C10.4434 18.7738 11.478 20.6701 13.058 21.8941C10.0334 22.8558 7.39597 24.8562 5.67239 27.5998C3.43882 24.9728 2.08161 21.5777 2.08161 17.8683C2.08161 9.56678 8.83436 2.81403 17.1338 2.81403C25.4331 2.81403 32.1859 9.56678 32.1859 17.8683C32.1859 21.5777 30.8287 24.9728 28.5951 27.5998ZM12.5251 16.6255C12.5251 14.0839 14.5921 12.0168 17.1338 12.0168C19.6754 12.0168 21.7424 14.0839 21.7424 16.6255C21.7424 19.1672 19.6754 21.2342 17.1338 21.2342C14.5921 21.2342 12.5251 19.1672 12.5251 16.6255ZM17.1338 32.9183C13.2953 32.9183 9.80023 31.4633 7.13993 29.0902C7.16491 29.0569 7.20654 29.0403 7.22944 29.0007C9.28191 25.4953 13.0746 23.3158 17.1338 23.3158C21.1908 23.3158 24.9856 25.4953 27.036 28.9986C27.0589 29.0382 27.0943 29.0611 27.1213 29.0965C24.461 31.4653 20.9681 32.9183 17.1338 32.9183ZM17.1338 0.732422C7.68739 0.732422 0 8.41982 0 17.8683C0 27.3146 7.68739 34.9999 17.1338 34.9999C26.5801 34.9999 34.2675 27.3146 34.2675 17.8683C34.2675 8.41982 26.5801 0.732422 17.1338 0.732422Z" fill="#ABAEB2"/>
</svg>
