<svg width="34" height="34" viewBox="0 0 34 34" fill="none" xmlns="http://www.w3.org/2000/svg">
<path d="M14.4047 5.91024C14.3031 5.93589 14.2077 5.98143 14.1239 6.04422C14.04 6.107 13.9695 6.18579 13.9163 6.27602C13.8631 6.36624 13.8284 6.46612 13.8141 6.56987C13.7997 6.67362 13.8061 6.77918 13.8329 6.88044C13.9493 7.34013 14.0092 7.81234 14.011 8.28654C14.0119 9.56045 13.5866 10.798 12.8029 11.8024C12.0193 12.8067 10.9222 13.52 9.68627 13.8289C8.45037 14.1377 7.14668 14.0243 5.98267 13.5067C4.81866 12.9891 3.86122 12.0971 3.26272 10.9725C2.66422 9.84796 2.45905 8.55553 2.67987 7.30091C2.90068 6.04629 3.53479 4.90158 4.48128 4.04894C5.42776 3.1963 6.63224 2.68474 7.90303 2.59566C9.17381 2.50658 10.4379 2.84511 11.4941 3.55736C11.6688 3.6669 11.8792 3.70444 12.081 3.66208C12.2828 3.61971 12.4604 3.50075 12.5763 3.33019C12.6922 3.15964 12.7375 2.95079 12.7026 2.74753C12.6677 2.54428 12.5554 2.36247 12.3893 2.24032C10.9755 1.28922 9.27311 0.863872 7.57818 1.03826C5.88324 1.21265 4.30309 1.97575 3.11264 3.19478C1.92219 4.41381 1.19679 6.01163 1.06265 7.71022C0.928518 9.40881 1.39414 11.1007 2.37849 12.4915C3.36285 13.8822 4.80365 14.8839 6.4502 15.3221C8.09676 15.7604 9.84485 15.6075 11.3903 14.8901C12.9358 14.1727 14.1809 12.9362 14.9089 11.3957C15.6369 9.85515 15.8018 8.10814 15.3749 6.45861C15.318 6.25784 15.1842 6.08762 15.0025 5.98494C14.8209 5.88226 14.606 5.85541 14.4047 5.91024Z" fill="#2479A8" stroke="#2479A8" stroke-width="0.5"/>
<path d="M26.2298 15.7736C27.6743 15.7746 29.0865 15.3471 30.288 14.5452C31.4895 13.7434 32.4262 12.6033 32.9796 11.269C33.533 9.93478 33.6783 8.46637 33.3971 7.04955C33.1158 5.63272 32.4207 4.33113 31.3997 3.30941C30.3786 2.28769 29.0775 1.59175 27.6608 1.3096C26.2442 1.02746 24.7757 1.1718 23.4411 1.72436C22.1065 2.27692 20.9657 3.21287 20.1631 4.41384C19.3605 5.6148 18.9321 7.02682 18.9321 8.47129C18.9346 10.4064 19.7041 12.2617 21.072 13.6304C22.4399 14.9992 24.2947 15.7699 26.2298 15.7736ZM26.2298 2.76721C27.3603 2.76165 28.4669 3.09184 29.4095 3.71594C30.3521 4.34004 31.0882 5.22994 31.5245 6.27285C31.9607 7.31576 32.0775 8.46472 31.86 9.57409C31.6426 10.6835 31.1006 11.7033 30.3029 12.5043C29.5052 13.3053 28.4876 13.8514 27.3791 14.0735C26.2707 14.2955 25.1212 14.1834 24.0766 13.7515C23.0319 13.3195 22.1389 12.5871 21.511 11.6471C20.883 10.7071 20.5482 9.60177 20.5491 8.47129C20.5516 6.96328 21.1501 5.51739 22.2143 4.44888C23.2784 3.38036 24.7218 2.77587 26.2298 2.76721Z" fill="#2479A8" stroke="#2479A8" stroke-width="0.5"/>
<path d="M8.30703 19.0361C6.86257 19.0352 5.45027 19.4627 4.24879 20.2645C3.04731 21.0664 2.11062 22.2065 1.55721 23.5407C1.00379 24.875 0.858512 26.3434 1.13974 27.7602C1.42098 29.177 2.11609 30.4786 3.13715 31.5004C4.15822 32.5221 5.45936 33.218 6.876 33.5002C8.29265 33.7823 9.76115 33.638 11.0957 33.0854C12.4303 32.5329 13.5711 31.5969 14.3737 30.3959C15.1763 29.195 15.6047 27.7829 15.6047 26.3385C15.6022 24.4033 14.8327 22.5481 13.4648 21.1793C12.0969 19.8105 10.2422 19.0399 8.30703 19.0361ZM8.30703 32.0426C7.17755 32.0435 6.07317 31.7093 5.13365 31.0824C4.19413 30.4555 3.4617 29.5639 3.02904 28.5206C2.59637 27.4773 2.48292 26.329 2.70305 25.2212C2.92317 24.1134 3.46698 23.0958 4.26564 22.2971C5.06431 21.4984 6.08194 20.9546 7.18977 20.7345C8.2976 20.5144 9.44583 20.6278 10.4892 21.0605C11.5325 21.4931 12.424 22.2256 13.051 23.1651C13.6779 24.1046 14.012 25.209 14.0111 26.3385C14.0086 27.8505 13.4069 29.2999 12.3377 30.3691C11.2685 31.4383 9.81909 32.0401 8.30703 32.0426Z" fill="#2479A8" stroke="#2479A8" stroke-width="0.5"/>
<path d="M26.2301 19.0361C24.7858 19.0361 23.374 19.4644 22.1731 20.2668C20.9723 21.0692 20.0363 22.2097 19.4836 23.544C18.9309 24.8783 18.7863 26.3466 19.0681 27.7631C19.3498 29.1796 20.0453 30.4808 21.0665 31.502C22.0878 32.5233 23.3889 33.2187 24.8055 33.5005C26.222 33.7823 27.6902 33.6377 29.0246 33.085C30.3589 32.5323 31.4994 31.5963 32.3018 30.3954C33.1041 29.1946 33.5324 27.7827 33.5324 26.3385C33.5299 24.4025 32.7598 22.5466 31.3909 21.1777C30.022 19.8088 28.166 19.0386 26.2301 19.0361ZM26.2301 32.0426C25.1008 32.0426 23.9969 31.7076 23.058 31.0801C22.1191 30.4526 21.3874 29.5608 20.9554 28.5174C20.5235 27.4739 20.4107 26.3259 20.6314 25.2183C20.852 24.1108 21.3962 23.0936 22.195 22.2954C22.9939 21.4972 24.0115 20.9539 25.1192 20.7341C26.2269 20.5144 27.3749 20.6281 28.418 21.0609C29.461 21.4937 30.3523 22.2262 30.979 23.1656C31.6057 24.105 31.9398 25.2092 31.9388 26.3385C31.9376 27.8517 31.3356 29.3026 30.2651 30.3722C29.1947 31.4417 27.7433 32.0426 26.2301 32.0426Z" fill="#2479A8" stroke="#2479A8" stroke-width="0.5"/>
<path d="M8.03053 9.22556L6.08074 7.27108L4.95117 8.40065L8.03053 11.48L16.6874 2.82312L15.5578 1.69824L8.03053 9.22556Z" fill="#2479A8" stroke="#2479A8" stroke-width="0.5"/>
</svg>
