<svg width="36" height="36" viewBox="0 0 36 36" fill="none" xmlns="http://www.w3.org/2000/svg">
<path d="M18 1C8.61584 1 1 8.61583 1 18C1 27.3842 8.61584 35 18 35C27.3842 35 35 27.3842 35 18C35 8.61583 27.3842 1 18 1ZM18 1.7907C20.2062 1.7907 22.3102 2.22893 24.2267 3.02616L20.5451 9.26526C19.7383 9.0305 18.8822 8.90698 18 8.90698C17.1125 8.90698 16.2536 9.04011 15.4426 9.27762L11.7733 3.02616C13.6898 2.22893 15.7938 1.7907 18 1.7907ZM11.0443 3.35974L14.6766 9.53706C12.3318 10.4598 10.4598 12.3318 9.53706 14.6766L3.35974 11.0443C4.95958 7.68126 7.68126 4.95958 11.0443 3.35974ZM24.9557 3.35974C28.3187 4.95958 31.0404 7.68126 32.6403 11.0443L26.4629 14.6766C25.5402 12.3318 23.6682 10.4598 21.3234 9.53706L24.9557 3.35974ZM18 9.69767C22.5899 9.69767 26.3023 13.4101 26.3023 18C26.3023 22.5899 22.5899 26.3023 18 26.3023C13.4101 26.3023 9.69767 22.5899 9.69767 18C9.69767 13.4101 13.4101 9.69767 18 9.69767ZM3.02616 11.7733L9.27762 15.4426C9.04011 16.2536 8.90698 17.1125 8.90698 18C8.90698 18.8822 9.0305 19.7383 9.26526 20.5451L3.02616 24.2267C2.22893 22.3102 1.7907 20.2062 1.7907 18C1.7907 15.7938 2.22893 13.6898 3.02616 11.7733ZM32.9738 11.7733C33.7711 13.6898 34.2093 15.7938 34.2093 18C34.2093 20.2062 33.7711 22.3102 32.9738 24.2267L26.7347 20.5451C26.9695 19.7383 27.093 18.8822 27.093 18C27.093 17.1125 26.9599 16.2536 26.7224 15.4426L32.9738 11.7733ZM9.53706 21.3234C10.4598 23.6682 12.3318 25.5402 14.6766 26.4629L11.0443 32.6403C7.68126 31.0404 4.95958 28.3187 3.35974 24.9557L9.53706 21.3234ZM26.4629 21.3234L32.6403 24.9557C31.0404 28.3187 28.3187 31.0404 24.9557 32.6403L21.3234 26.4629C23.6682 25.5402 25.5402 23.6682 26.4629 21.3234ZM15.4426 26.7224C16.2536 26.9599 17.1125 27.093 18 27.093C18.8822 27.093 19.7383 26.9695 20.5451 26.7347L24.2267 32.9738C22.3102 33.7711 20.2062 34.2093 18 34.2093C15.7938 34.2093 13.6898 33.7711 11.7733 32.9738L15.4426 26.7224Z" fill="#ABAEB2" stroke="#ABAEB2"/>
</svg>
