<svg width="20" height="19" viewBox="0 0 20 19" fill="none" xmlns="http://www.w3.org/2000/svg">
<path d="M16.5671 10.3205H16.4148C16.1484 10.2444 15.9961 9.93984 16.0722 9.67338C16.5671 8.15078 16.1484 6.51398 15.0064 5.4101C13.8645 4.26815 12.1896 3.8875 10.667 4.38234C10.4006 4.45847 10.1341 4.34428 10.0199 4.07782C9.94378 3.81137 10.058 3.50685 10.3625 3.39265C13.1032 2.47909 16.1103 3.92556 17.0239 6.66624C17.3665 7.73206 17.4045 8.87401 17.0619 9.93984C16.9858 10.1682 16.7955 10.3205 16.5671 10.3205Z" fill="white"/>
<path d="M19.1171 10.4724H19.0029C18.7365 10.4343 18.5462 10.1679 18.6223 9.90142C18.6223 9.90142 18.6223 9.90142 18.6223 9.86336C19.041 7.61752 18.3178 5.33362 16.719 3.69682C15.0822 2.17422 12.7983 1.52712 10.6286 2.02196C10.3622 2.09809 10.0957 1.94583 10.0196 1.67938C10.0196 1.67938 10.0196 1.67938 10.0196 1.64131C9.94347 1.37486 10.0957 1.1084 10.3622 1.03227C10.3622 1.03227 10.3622 1.03227 10.4002 1.03227C12.9125 0.461297 15.5771 1.18453 17.4423 2.97359C19.3075 4.83877 20.1068 7.50333 19.612 10.0917C19.5359 10.3201 19.3455 10.4724 19.1171 10.4724Z" fill="white"/>
<path d="M14.5495 18.923C7.43133 18.923 2.40675 11.9571 0.846083 7.12281C0.237042 5.37181 0.351237 3.84921 1.18867 2.63113C2.0261 1.41305 4.08161 0.537556 5.03324 0.461426C5.22356 0.461426 5.41389 0.537556 5.49002 0.727881L7.96425 5.18149C8.07844 5.37181 8.04038 5.63827 7.88812 5.79053L5.90873 7.80798C6.97455 10.5867 9.1062 12.8326 11.8849 13.9745L13.9405 11.8048C14.1308 11.6525 14.3592 11.6145 14.5876 11.7287L19.0792 14.3552C19.2315 14.4313 19.3076 14.5836 19.3076 14.7358C19.4599 16.1062 18.6986 18.2759 16.6811 18.6946C15.996 18.8468 15.2727 18.923 14.5495 18.923ZM4.76678 1.52725C3.6629 1.71757 2.6732 2.32661 2.0261 3.20211C1.37899 4.15373 1.30286 5.33375 1.79771 6.81829C2.82547 9.86349 7.16488 17.8952 14.4734 17.8952C15.1205 17.8952 15.8056 17.8571 16.4527 17.7049C17.785 17.4384 18.2799 15.992 18.3179 15.0784L14.4353 12.7945L12.4179 14.9261C12.2656 15.0784 12.0753 15.1165 11.8849 15.0784C8.57329 13.8603 5.9468 11.1958 4.80485 7.84604C4.76678 7.65572 4.80485 7.46539 4.95711 7.31313L6.86036 5.33375L4.76678 1.52725Z" fill="white"/>
</svg>
